<svg width="50" height="32" viewBox="0 0 50 32" fill="none" xmlns="http://www.w3.org/2000/svg">
<g clip-path="url(#clip0_602_2888)">
<path d="M14.3028 26.8144C13.6912 26.8152 13.1007 26.611 12.6437 26.2406L0 15.9989L13.3458 5.18784C13.8433 4.80005 14.4879 4.60565 15.141 4.64643C15.7941 4.68721 16.4035 4.95991 16.8383 5.4059C17.2731 5.85189 17.4984 6.43553 17.4658 7.03133C17.4333 7.62712 17.1454 8.18748 16.6642 8.5919L7.52124 15.9989L15.962 22.8343C16.3412 23.1409 16.6091 23.5454 16.7301 23.994C16.8511 24.4426 16.8195 24.9142 16.6395 25.346C16.4595 25.7779 16.1395 26.1497 15.7222 26.4119C15.3048 26.6742 14.8098 26.8146 14.3028 26.8144ZM36.6542 26.8099L50 15.9989L37.3563 5.75708C36.861 5.35609 36.2111 5.15086 35.5496 5.18651C34.8882 5.22217 34.2694 5.4958 33.8293 5.9472C33.3893 6.39861 33.1641 6.99082 33.2032 7.59355C33.2423 8.19628 33.5426 8.76016 34.038 9.16114L42.4788 15.9989L33.3358 23.4035C32.8401 23.8045 32.5395 24.3685 32.5002 24.9715C32.4608 25.5744 32.6859 26.1669 33.1259 26.6186C33.566 27.0703 34.1849 27.3442 34.8466 27.3801C35.5083 27.416 36.1585 27.2109 36.6542 26.8099ZM24.965 30.0363L29.9625 2.71278C30.0264 2.41416 30.024 2.1069 29.9554 1.80915C29.8868 1.5114 29.7534 1.22919 29.5631 0.979204C29.3728 0.729215 29.1295 0.516513 28.8475 0.35366C28.5655 0.190808 28.2505 0.0811086 27.9212 0.0310422C27.5918 -0.0190241 27.2548 -0.00844237 26.9301 0.0621628C26.6053 0.132768 26.2994 0.261965 26.0303 0.442121C25.7613 0.622278 25.5346 0.84974 25.3636 1.11107C25.1927 1.3724 25.0809 1.66231 25.035 1.96365L20.0375 29.2872C19.9736 29.5858 19.976 29.8931 20.0446 30.1909C20.1132 30.4886 20.2466 30.7708 20.4369 31.0208C20.6272 31.2708 20.8705 31.4835 21.1525 31.6463C21.4345 31.8092 21.7495 31.9189 22.0788 31.969C22.4082 32.019 22.7452 32.0084 23.0699 31.9378C23.3947 31.8672 23.7006 31.738 23.9697 31.5579C24.2387 31.3777 24.4654 31.1503 24.6364 30.8889C24.8073 30.6276 24.9191 30.3377 24.965 30.0363Z" fill="#C9C9C9"/>
</g>
<defs>
<clipPath id="clip0_602_2888">
<rect width="50" height="32" fill="white"/>
</clipPath>
</defs>
</svg>
