<svg width="1440" height="714" viewBox="0 0 1440 714" fill="none" xmlns="http://www.w3.org/2000/svg">
<g opacity="0.2" clip-path="url(#clip0_635_864)">
<path d="M35.9053 667.787C43.7691 669.471 51.7147 670.599 59.6978 671.164C50.6378 677.674 41.531 684.299 32.3774 691.04C22.8622 692.254 13.28 692.619 3.71608 692.132C14.5194 683.847 25.2491 675.732 35.9053 667.787ZM13.0157 661.18C20.3006 663.861 27.7216 666.023 35.2365 667.652C24.5357 675.628 13.7681 683.774 2.93359 692.09C-5.42362 691.624 -13.7359 690.397 -21.9256 688.42C-10.1904 679.131 1.45667 670.051 13.0157 661.18ZM94.8899 646.9C102.204 648.32 109.696 649.361 117.365 650.022C107.186 656.763 96.9442 663.657 86.6403 670.705C78.1243 671.312 69.5848 671.346 61.0655 670.805C72.4194 662.644 83.6942 654.675 94.8899 646.9ZM72.1708 641.161C79.3381 643.409 86.6848 645.278 94.211 646.768C82.9842 654.557 71.6715 662.553 60.2729 670.759C52.2595 670.216 44.2825 669.106 36.3868 667.436C48.3984 658.478 60.3432 649.663 72.1708 641.145V641.161ZM50.3313 632.94C57.2422 635.976 64.327 638.653 71.5856 640.971C59.7379 649.505 47.7698 658.339 35.7348 667.301C28.2008 665.676 20.7608 663.517 13.4571 660.836C25.841 651.308 38.1324 642.005 50.3313 632.924V632.94ZM29.4012 622.4C36.0379 626.177 42.8374 629.614 49.7996 632.712C37.6074 641.772 25.3082 651.077 12.902 660.628C5.82091 658 -1.11699 654.884 -7.87417 651.295C4.64794 641.418 17.0731 631.781 29.4012 622.384V622.4ZM9.42093 609.706C15.77 614.167 22.2741 618.309 28.9331 622.13C16.6138 631.516 4.18647 641.15 -8.34902 651.033C-14.9976 647.467 -21.4673 643.473 -27.7274 639.069C-15.2521 629.052 -2.86934 619.259 9.42093 609.691V609.706ZM154.884 626.221C161.63 627.45 168.494 628.427 175.477 629.15C164.04 636.025 152.519 643.093 140.913 650.354C133.352 650.5 125.966 650.265 118.739 649.694C130.88 641.656 142.93 633.826 154.888 626.205L154.884 626.221ZM132.717 621.172C139.737 623.097 146.89 624.737 154.175 626.093C142.204 633.709 130.132 641.557 117.96 649.636C110.26 648.995 102.743 647.966 95.4082 646.548C107.95 637.836 120.388 629.372 132.72 621.157L132.717 621.172ZM110.57 614.029C117.606 616.64 124.776 618.966 132.082 621.006C119.733 629.24 107.284 637.706 94.7327 646.405C87.1865 644.929 79.8219 643.068 72.639 640.825C85.393 631.634 98.0377 622.697 110.573 614.013L110.57 614.029ZM88.8339 604.862C95.7627 608.133 102.826 611.117 110.025 613.816C97.4781 622.513 84.8256 631.451 72.0672 640.632C64.7951 638.337 57.7003 635.663 50.7827 632.612C63.5656 623.097 76.246 613.837 88.8239 604.831L88.8339 604.862ZM67.6297 593.797C74.3957 597.68 81.2921 601.282 88.3189 604.604C75.7389 613.609 63.0507 622.864 50.2543 632.369C43.2832 629.281 36.476 625.846 29.8326 622.064C42.5331 612.377 55.1288 602.949 67.6197 593.782L67.6297 593.797ZM47.0742 580.938C53.6485 585.384 60.3454 589.579 67.1649 593.523C54.6807 602.709 42.085 612.137 29.3778 621.809C22.7144 617.996 16.207 613.855 9.85564 609.386C22.3599 599.647 34.7628 590.159 47.0642 580.922L47.0742 580.938ZM27.1441 566.441C33.5244 571.412 40.0229 576.145 46.6395 580.64C34.3314 589.903 21.9219 599.384 9.4109 609.085C3.05286 604.6 -3.15804 599.806 -9.2218 594.704C3.00159 585.027 15.1202 575.601 27.134 566.426L27.1441 566.441ZM7.81581 550.413C14.0089 555.858 20.3112 561.09 26.7227 566.109C14.6977 575.318 2.58136 584.735 -9.62642 594.361C-15.6924 589.248 -21.6291 583.871 -27.4365 578.228C-15.5854 568.729 -3.83464 559.457 7.81581 550.413ZM216.109 605.873C222.129 606.946 228.208 607.877 234.374 608.621C221.42 615.507 208.359 622.629 195.193 629.987C189.013 629.81 182.934 629.401 176.935 628.829C190.103 620.918 203.161 613.266 216.109 605.873ZM194.868 601.358C201.608 603.023 208.438 604.483 215.36 605.738C202.399 613.141 189.321 620.807 176.125 628.737C169.112 628.037 162.222 627.072 155.456 625.842C168.705 617.426 181.842 609.265 194.868 601.358ZM172.721 595.067C179.777 597.336 186.938 599.378 194.203 601.192C181.168 609.101 168.015 617.276 154.744 625.715C147.438 624.372 140.267 622.738 133.229 620.813C146.507 611.96 159.671 603.379 172.721 595.071V595.067ZM150.34 587.028C157.487 589.876 164.745 592.491 172.113 594.874C159.058 603.195 145.886 611.785 132.597 620.644C125.271 618.621 118.085 616.306 111.038 613.697C124.262 604.537 137.363 595.648 150.34 587.032V587.028ZM128.122 577.275C135.238 580.674 142.461 583.849 149.791 586.8C136.803 595.432 123.698 604.325 110.476 613.477C103.262 610.785 96.1907 607.802 89.2619 604.527C102.335 595.179 115.288 586.096 128.122 577.279V577.275ZM106.189 565.947C113.22 569.861 120.361 573.554 127.611 577.028C114.77 585.858 101.818 594.942 88.7537 604.28C81.7201 600.953 74.8182 597.351 68.0477 593.473C80.873 584.046 93.5868 574.872 106.189 565.951V565.947ZM84.6472 553.115C91.5582 557.507 98.5805 561.697 105.714 565.685C93.1187 574.6 80.4115 583.768 67.5929 593.188C60.7645 589.259 54.0643 585.063 47.4922 580.602C59.972 571.223 72.357 562.061 84.6472 553.115ZM63.5801 538.951C70.3573 543.767 77.2325 548.398 84.2058 552.845C71.9368 561.741 59.5339 570.945 47.0541 580.32C40.4331 575.82 33.9301 571.083 27.5453 566.109C39.6483 556.847 51.6577 547.795 63.5734 538.954L63.5801 538.951ZM42.9511 523.513C49.5967 528.72 56.3293 533.761 63.1488 538.634C51.2509 547.441 39.2504 556.487 27.1474 565.77C20.7314 560.76 14.428 555.527 8.23715 550.07C19.8965 541.018 31.4656 532.172 42.9444 523.532L42.9511 523.513ZM22.6865 506.917C29.2207 512.49 35.8395 517.91 42.5431 523.177C31.071 531.825 19.5075 540.672 7.8526 549.718C1.63055 544.238 -4.48895 538.553 -10.5059 532.663C0.64296 523.913 11.7049 515.342 22.6798 506.952L22.6865 506.917ZM2.84999 489.333C9.25707 495.215 15.7399 500.964 22.2986 506.581C11.3237 514.977 0.268433 523.554 -10.867 532.312C-16.8862 526.415 -22.8184 520.343 -28.6637 514.096C-18.0901 505.697 -7.58771 497.455 2.8433 489.368L2.84999 489.333ZM279.147 586.094C284.21 587.002 289.314 587.818 294.459 588.541C279.605 595.256 264.609 602.291 249.472 609.644C244.918 609.302 240.406 608.867 235.936 608.34C250.469 600.629 264.873 593.213 279.147 586.094ZM259.116 582.018C265.463 583.477 271.878 584.788 278.361 585.951C264.073 593.073 249.647 600.505 235.083 608.247C228.888 607.511 222.77 606.603 216.728 605.522C230.989 597.387 245.118 589.552 259.116 582.018ZM237.173 576.364C244.171 578.363 251.25 580.193 258.411 581.852C244.397 589.409 230.256 597.257 215.986 605.395C209.035 604.147 202.181 602.692 195.424 601.03C209.462 592.518 223.378 584.297 237.173 576.364ZM214.371 569.159C221.674 571.677 229.061 574.016 236.531 576.175C222.738 584.107 208.814 592.341 194.758 600.875C187.475 599.074 180.299 597.037 173.229 594.762C187.069 585.937 200.783 577.402 214.371 569.159ZM191.233 560.479C198.662 563.489 206.174 566.319 213.772 568.969C200.184 577.203 186.467 585.736 172.621 594.569C165.244 592.187 157.976 589.572 150.818 586.727C164.415 577.698 177.887 568.949 191.233 560.479ZM168.056 550.386C175.507 553.86 183.046 557.148 190.675 560.251C177.328 568.716 163.857 577.464 150.263 586.495C142.922 583.557 135.693 580.383 128.577 576.974C141.853 567.848 155.013 558.985 168.056 550.386ZM145.033 538.966C152.445 542.864 159.946 546.588 167.535 550.139C154.502 558.723 141.349 567.584 128.076 576.723C120.826 573.249 113.681 569.556 106.641 565.643C119.544 556.519 132.341 547.627 145.033 538.966ZM122.294 526.361C129.628 530.637 137.045 534.754 144.545 538.711C131.867 547.326 119.069 556.215 106.152 565.38C99.0186 561.405 91.9962 557.217 85.0853 552.818C97.5985 543.753 109.999 534.934 122.287 526.361H122.294ZM99.7754 512.61C107.043 517.241 114.391 521.733 121.819 526.087C109.522 534.676 97.1248 543.488 84.6272 552.524C77.6516 548.091 70.773 543.46 63.9914 538.63C76.0164 529.738 87.9444 521.065 99.7754 512.61ZM77.5647 497.84C84.7453 502.8 91.9973 507.627 99.3207 512.32C87.5052 520.77 75.585 529.443 63.5601 538.341C56.7317 533.483 49.998 528.443 43.359 523.219C54.8467 514.566 66.2486 506.107 77.5647 497.84ZM55.6348 482.151C62.7352 487.395 69.9047 492.525 77.1433 497.542C65.8474 505.776 54.4544 514.228 42.9645 522.899C36.2609 517.635 29.6409 512.214 23.1045 506.635C34.0282 498.281 44.8716 490.119 55.6348 482.151ZM33.929 465.609C40.9625 471.121 48.0596 476.524 55.2202 481.819C44.4614 489.795 33.6269 497.95 22.7166 506.284C16.1557 500.675 9.67172 494.923 3.26464 489.028C13.5463 481.065 23.7633 473.259 33.9156 465.609H33.929ZM12.4539 448.35C19.4161 454.077 26.4385 459.725 33.521 465.293C23.3865 472.927 13.1762 480.731 2.89012 488.704C-3.56377 482.786 -9.9441 476.74 -16.2509 470.565C-6.6291 463.013 2.93471 455.608 12.4405 448.35H12.4539ZM-8.90412 430.423C-1.97761 436.358 5.00129 442.225 12.0326 448.022C2.54235 455.265 -7.01365 462.656 -16.6354 470.194C-22.9957 463.981 -29.2958 457.658 -35.5356 451.225C-26.5938 444.147 -17.7256 437.246 -8.90412 430.423ZM344.953 567.163C348.794 567.868 352.653 568.535 356.53 569.162C339.119 575.471 321.524 582.183 303.745 589.297C301.184 588.994 298.635 588.668 296.098 588.321C312.557 580.9 328.845 573.848 344.963 567.163H344.953ZM326.351 563.412C332.227 564.698 338.143 565.897 344.097 567.009C327.972 573.711 311.682 580.773 295.225 588.193C290.048 587.475 284.914 586.664 279.822 585.758C295.495 577.959 311.007 570.511 326.361 563.412H326.351ZM304.715 558.201C311.626 560.003 318.585 561.683 325.592 563.242C310.234 570.351 294.715 577.813 279.037 585.627C272.531 584.461 266.093 583.153 259.722 581.702C274.877 573.538 289.878 565.704 304.725 558.201H304.715ZM281.481 551.59C288.927 553.875 296.439 556.017 304.016 558.016C289.169 565.509 274.165 573.345 259.006 581.524C251.83 579.872 244.734 578.045 237.718 576.044C252.456 567.581 267.047 559.43 281.491 551.59H281.481ZM257.491 543.686C265.202 546.406 272.984 548.979 280.836 551.405C266.403 559.222 251.815 567.375 237.073 575.866C229.587 573.72 222.188 571.384 214.875 568.857C229.226 560.163 243.434 551.773 257.501 543.686H257.491ZM233.15 534.543C240.993 537.664 248.907 540.642 256.893 543.478C242.835 551.547 228.633 559.933 214.287 568.637C206.674 566.008 199.156 563.184 191.735 560.166C205.673 551.333 219.481 542.792 233.16 534.543H233.15ZM208.649 524.238C216.554 527.743 224.533 531.102 232.585 534.315C218.908 542.549 205.098 551.091 191.153 559.942C183.52 556.839 175.974 553.552 168.514 550.081C182.022 541.197 195.403 532.582 208.659 524.238H208.649ZM184.265 512.895C192.143 516.727 200.095 520.428 208.121 523.999C194.878 532.317 181.502 540.929 167.993 549.834C160.4 546.289 152.892 542.558 145.471 538.642C158.537 529.783 171.472 521.201 184.275 512.895H184.265ZM159.934 500.545C167.806 504.698 175.745 508.73 183.753 512.641C170.939 520.977 158.009 529.562 144.963 538.395C137.459 534.445 130.039 530.329 122.702 526.045C135.224 517.32 147.638 508.821 159.944 500.549L159.934 500.545ZM135.794 487.334C143.61 491.765 151.491 496.081 159.439 500.283C147.155 508.516 134.757 517.013 122.244 525.774C114.813 521.436 107.464 516.944 100.197 512.297C112.177 503.745 124.046 495.425 135.804 487.338L135.794 487.334ZM111.757 473.274C119.56 477.97 127.413 482.566 135.319 487.064C123.555 495.166 111.696 503.482 99.742 512.012C92.4075 507.326 85.1555 502.502 77.986 497.539C89.3288 489.264 100.589 481.177 111.767 473.278L111.757 473.274ZM87.9411 458.531C95.6701 463.438 103.453 468.259 111.289 472.996C100.142 480.857 88.8941 488.933 77.5446 497.226C70.3015 492.219 63.1298 487.09 56.0294 481.838C66.7569 473.89 77.3975 466.123 87.9511 458.535L87.9411 458.531ZM64.1988 443.093C71.9145 448.213 79.6825 453.263 87.503 458.242C76.9583 465.829 66.3356 473.592 55.6348 481.53C48.4675 476.227 41.3683 470.816 34.337 465.297C44.3556 457.748 54.3084 450.355 64.1954 443.12L64.1988 443.093ZM40.5869 427.13C48.258 432.415 55.9815 437.641 63.7574 442.808C53.8859 450.038 43.942 457.429 33.9257 464.98C26.8409 459.423 19.8185 453.774 12.8585 448.033C22.1548 440.94 31.3976 433.972 40.5869 427.13ZM17.0118 410.662C24.6806 416.094 32.393 421.484 40.1488 426.833C30.9796 433.654 21.748 440.613 12.4539 447.709C5.41817 441.915 -1.56184 436.048 -8.48612 430.11C0.0677948 423.508 8.56709 417.025 17.0118 410.662ZM423.396 547.024C439.604 544.081 455.686 541.392 471.643 538.958C435.493 547.145 398.584 556.856 360.917 568.089C382.007 560.515 402.833 553.493 423.396 547.024ZM398.116 546.125C402.811 547.154 407.524 548.132 412.254 549.058H412.321H412.391C414.844 548.6 417.28 548.148 419.701 547.7C399.192 554.207 378.431 561.256 357.42 568.846C353.507 568.226 349.614 567.558 345.739 566.843C363.391 559.52 380.85 552.614 398.116 546.125ZM376.617 541.108C383.461 542.806 390.346 544.413 397.27 545.928C380.008 552.428 362.546 559.344 344.883 566.677C338.893 565.573 332.945 564.375 327.039 563.084C343.753 555.367 360.279 548.046 376.617 541.12V541.108ZM352.825 534.798C360.451 536.946 368.127 538.987 375.852 540.919C359.511 547.866 342.987 555.199 326.28 562.918C319.245 561.374 312.266 559.695 305.344 557.881C321.344 549.815 337.171 542.124 352.825 534.809V534.798ZM327.835 527.345C335.881 529.89 343.978 532.312 352.126 534.612C336.476 541.943 320.648 549.64 304.641 557.704C297.046 555.712 289.52 553.573 282.063 551.285C297.492 542.941 312.749 534.961 327.835 527.345ZM302.157 518.796C310.443 521.696 318.784 524.478 327.18 527.141C312.085 534.782 296.831 542.758 281.417 551.069C273.552 548.653 265.758 546.08 258.033 543.35C272.894 534.847 287.602 526.662 302.157 518.796ZM276.214 509.298C284.599 512.507 293.04 515.601 301.538 518.58C286.992 526.438 272.288 534.634 257.428 543.169C249.436 540.339 241.515 537.362 233.665 534.238C247.991 525.611 262.174 517.298 276.214 509.298ZM250.064 498.878C258.536 502.382 267.057 505.781 275.629 509.074C261.598 517.071 247.42 525.385 233.097 534.014C225.045 530.798 217.061 527.439 209.147 523.937C222.922 515.289 236.561 506.936 250.064 498.878ZM223.944 487.685C232.416 491.442 240.936 495.102 249.506 498.666C236.005 506.724 222.37 515.075 208.602 523.717C200.577 520.156 192.623 516.454 184.743 512.61C197.931 504.019 210.999 495.704 223.944 487.666V487.685ZM197.818 475.721C206.289 479.719 214.819 483.629 223.406 487.45C210.476 495.48 197.417 503.786 184.228 512.367C176.216 508.463 168.274 504.432 160.402 500.271C172.989 491.816 185.461 483.624 197.818 475.694V475.721ZM171.701 463.062C180.173 467.279 188.703 471.416 197.293 475.474C184.94 483.412 172.477 491.59 159.904 500.009C151.952 495.81 144.065 491.493 136.245 487.06C148.156 478.836 159.994 470.789 171.701 463.035V463.062ZM145.715 449.843C154.155 454.233 162.648 458.555 171.193 462.811C159.489 470.553 147.668 478.596 135.77 486.786C127.852 482.299 119.997 477.705 112.205 473.004C123.474 465.038 134.626 457.354 145.715 449.816V449.843ZM119.729 436.065C128.176 440.627 136.672 445.13 145.217 449.573C134.138 457.107 122.996 464.783 111.74 472.73C103.893 467.998 96.1071 463.177 88.3825 458.265C98.9071 450.674 109.356 443.266 119.729 436.038V436.065ZM93.7295 421.785C102.185 426.494 110.69 431.16 119.244 435.783C108.884 442.988 98.4456 450.376 87.9277 457.948C80.1028 452.977 72.3325 447.928 64.6168 442.8C74.3879 435.642 84.0921 428.634 93.7295 421.777V421.785ZM67.7768 407.158C76.2237 411.974 84.7141 416.761 93.248 421.519C83.6262 428.363 73.9353 435.359 64.1754 442.507C56.3973 437.343 48.6726 432.117 41.0015 426.829C49.9813 420.147 58.9063 413.588 67.7768 407.15V407.158ZM41.774 392.206C50.2454 397.113 58.7548 402.002 67.302 406.872C58.4516 413.284 49.5398 419.835 40.5668 426.525C32.8065 421.181 25.0931 415.79 17.4264 410.353C25.5924 404.196 33.7083 398.145 41.774 392.199V392.206ZM536.5 526.06C550.03 525.749 563.487 525.551 576.872 525.466C546.531 528.376 515.706 532.083 484.397 536.589C501.942 532.757 519.31 529.248 536.5 526.06ZM490.065 527.581C504.668 526.95 519.189 526.465 533.631 526.126C515.246 529.571 496.66 533.38 477.873 537.553C461.015 540.075 444.018 542.869 426.881 545.936C448.222 539.272 469.285 533.154 490.069 527.581H490.065ZM454.954 525.94C458.795 526.882 462.646 527.806 466.507 528.711H466.557H466.607C473.741 528.325 480.857 527.977 487.955 527.666C466.668 533.414 445.088 539.717 423.216 546.577C419.595 547.233 415.968 547.902 412.335 548.584C407.842 547.701 403.37 546.775 398.918 545.805C417.823 538.724 436.5 532.103 454.95 525.94H454.954ZM430.001 519.537C438 521.691 446.032 523.761 454.098 525.747C435.652 531.922 416.974 538.561 398.062 545.662C391.111 544.149 384.2 542.54 377.33 540.834C395.102 533.287 412.659 526.189 430.001 519.537ZM403.523 512.081C412.057 514.587 420.626 517.003 429.232 519.329C411.885 526.019 394.327 533.124 376.557 540.645C368.808 538.718 361.108 536.677 353.457 534.524C370.344 526.622 387.033 519.136 403.523 512.065V512.081ZM376.27 503.748C385.078 506.548 393.926 509.249 402.814 511.853C386.317 518.937 369.633 526.421 352.761 534.308C344.6 532.007 336.488 529.586 328.427 527.044C344.559 518.893 360.506 511.123 376.27 503.733V503.748ZM348.568 494.609C357.543 497.666 366.559 500.635 375.614 503.517C359.857 510.906 343.918 518.682 327.795 526.843C319.386 524.185 311.033 521.404 302.735 518.499C318.176 510.165 333.453 502.202 348.568 494.609ZM320.579 484.771C329.659 488.055 338.776 491.262 347.929 494.393C332.823 502.007 317.553 509.97 302.117 518.283C293.607 515.304 285.155 512.208 276.759 508.997C291.511 500.586 306.112 492.511 320.562 484.771H320.579ZM292.436 474.289C301.576 477.783 310.755 481.203 319.974 484.548C305.53 492.29 290.928 500.365 276.167 508.773C267.58 505.485 259.05 502.085 250.576 498.573C264.665 490.164 278.613 482.07 292.419 474.289H292.436ZM264.239 463.247C273.402 466.916 282.606 470.518 291.851 474.054C278.051 481.845 264.108 489.938 250.021 498.334C241.44 494.775 232.916 491.115 224.449 487.353C237.825 479.053 251.083 471.018 264.223 463.247H264.239ZM236.019 451.704C245.195 455.53 254.411 459.3 263.668 463.016C250.55 470.76 237.297 478.796 223.908 487.122C215.318 483.304 206.783 479.394 198.303 475.393C210.981 467.242 223.548 459.345 236.003 451.704H236.019ZM207.749 439.708C216.945 443.676 226.183 447.597 235.461 451.472C223.008 459.111 210.439 467.005 197.754 475.154C189.167 471.099 180.634 466.961 172.156 462.742C184.134 454.814 195.972 447.18 207.733 439.708H207.749ZM179.416 427.296C188.632 431.388 197.889 435.441 207.188 439.458C195.437 446.922 183.613 454.548 171.654 462.464C163.107 458.211 154.611 453.887 146.167 449.492C157.34 441.899 168.423 434.501 179.416 427.296ZM151.029 414.56C160.272 418.752 169.554 422.917 178.877 427.057C167.9 434.261 156.831 441.652 145.668 449.23C137.117 444.784 128.617 440.281 120.17 435.722C130.53 428.517 140.816 421.47 151.029 414.58V414.56ZM122.558 401.546C131.834 405.82 141.148 410.078 150.5 414.321C140.31 421.186 130.037 428.228 119.682 435.448C111.128 430.816 102.621 426.149 94.1609 421.445C103.7 414.684 113.166 408.057 122.558 401.565V401.546ZM94.0305 388.331C103.327 392.659 112.662 396.984 122.036 401.307C112.651 407.783 103.2 414.407 93.6827 421.179C85.1466 416.43 76.6551 411.644 68.2082 406.822C76.8669 400.565 85.4743 394.407 94.0305 388.351V388.331ZM65.3625 374.962C74.71 379.336 84.0933 383.71 93.5121 388.084C84.9783 394.108 76.3854 400.261 67.7334 406.544C59.1794 401.656 50.6679 396.759 42.1987 391.855C49.9612 386.151 57.6824 380.526 65.3625 374.982V374.962ZM631.6 521.363C643.116 522.814 654.597 524.281 666.043 525.763C640.013 525.176 613.684 524.903 587.055 524.945C602.018 523.596 616.866 522.409 631.6 521.382V521.363ZM592.626 516.546C604.887 518.028 617.117 519.537 629.316 521.073C613.639 522.185 597.832 523.482 581.895 524.964C567.772 525.039 553.568 525.226 539.282 525.527C557.253 522.229 575.034 519.242 592.626 516.566V516.546ZM553.263 511.915C565.866 513.348 578.429 514.821 590.954 516.334C572.974 519.092 554.805 522.173 536.447 525.577C521.733 525.912 506.945 526.391 492.082 527.013C512.741 521.515 533.135 516.492 553.263 511.946V511.915ZM515.617 506.944C517.329 507.412 519.042 507.875 520.757 508.333H520.78H520.81C531.197 509.44 541.555 510.58 551.886 511.753C531.514 516.384 510.87 521.499 489.952 527.098C482.196 527.433 474.419 527.81 466.621 528.229C462.996 527.385 459.379 526.518 455.77 525.628C475.992 518.902 495.941 512.684 515.617 506.975V506.944ZM486.725 498.87C496.05 501.549 505.397 504.163 514.764 506.713C495.086 512.448 475.133 518.687 454.907 525.431C446.808 523.445 438.743 521.371 430.713 519.209C449.636 511.966 468.306 505.197 486.725 498.901V498.87ZM457.131 490.14C466.717 493.04 476.321 495.87 485.942 498.631C467.526 504.945 448.864 511.732 429.957 518.993C421.33 516.678 412.738 514.258 404.182 511.734C422.063 504.102 439.713 496.915 457.131 490.171V490.14ZM427.128 480.877C436.859 483.965 446.615 486.984 456.395 489.935C438.979 496.7 421.339 503.904 403.473 511.548C394.571 508.932 385.711 506.222 376.892 503.42C393.843 495.501 410.589 487.992 427.128 480.893V480.877ZM396.885 471.121C406.71 474.352 416.559 477.531 426.433 480.657C409.905 487.756 393.167 495.276 376.219 503.216C367.151 500.334 358.122 497.362 349.133 494.3C365.238 486.203 381.155 478.482 396.885 471.136V471.121ZM366.482 460.951C376.367 464.314 386.279 467.63 396.22 470.901C380.505 478.231 364.598 485.959 348.498 494.084C339.329 490.958 330.201 487.75 321.114 484.459C336.403 476.285 351.525 468.454 366.482 460.966V460.951ZM335.971 450.453C345.901 453.929 355.857 457.367 365.84 460.766C350.903 468.227 335.792 476.062 320.505 484.27C311.276 480.925 302.089 477.503 292.944 474.004C307.441 465.819 321.784 457.969 335.971 450.453ZM305.364 439.62C315.331 443.191 325.327 446.73 335.353 450.237C321.176 457.76 306.845 465.608 292.359 473.78C283.109 470.239 273.901 466.637 264.734 462.973C278.416 454.884 291.959 447.094 305.364 439.604V439.62ZM274.666 428.504C284.669 432.15 294.701 435.778 304.762 439.388C291.37 446.868 277.837 454.645 264.162 462.719C254.9 459.006 245.678 455.232 236.498 451.399C249.335 443.525 262.076 435.857 274.666 428.504ZM243.871 417.192C253.903 420.903 263.971 424.601 274.074 428.288C261.492 435.642 248.785 443.268 235.953 451.167C226.674 447.308 217.432 443.387 208.228 439.404C220.196 431.793 232.107 424.344 243.875 417.192H243.871ZM212.966 405.703C223.04 409.467 233.148 413.225 243.289 416.976C231.532 424.12 219.634 431.565 207.662 439.168C198.36 435.154 189.098 431.101 179.877 427.007C190.989 419.732 202.041 412.584 212.969 405.703H212.966ZM181.93 394.105C192.054 397.898 202.207 401.697 212.391 405.502C201.479 412.376 190.444 419.512 179.346 426.779C170.018 422.642 160.732 418.476 151.487 414.282C161.703 407.393 171.865 400.635 181.93 394.105ZM150.734 382.415L171.892 390.342L181.359 393.893C171.31 400.427 161.161 407.177 150.958 414.043C141.595 409.798 132.278 405.537 123.006 401.261C132.311 394.836 141.554 388.55 150.734 382.403V382.415ZM119.344 370.698C129.584 374.508 139.856 378.343 150.163 382.203C141 388.339 131.774 394.613 122.484 401.025C113.121 396.703 103.786 392.377 94.4786 388.05C102.812 382.16 111.1 376.372 119.344 370.686V370.698ZM87.7371 358.984C98.0499 362.774 108.4 366.601 118.786 370.466C110.573 376.116 102.287 381.921 93.9703 387.791C84.5469 383.402 75.1626 379.028 65.8173 374.669C73.1406 369.381 80.4706 364.102 87.7371 358.984ZM713.43 527.604C723.396 530.267 733.348 532.88 743.289 535.442L724.001 532.907C707.624 530.753 691.161 528.597 674.61 526.438C687.625 526.765 700.565 527.153 713.43 527.604ZM679.991 518.511C690.504 521.423 701.003 524.282 711.488 527.087C697.855 526.618 684.135 526.217 670.326 525.882C658.241 524.318 646.112 522.764 633.937 521.22C649.418 520.155 664.769 519.252 679.991 518.511ZM646.728 509.117C657.371 512.163 668.003 515.165 678.626 518.121C663.09 518.893 647.422 519.828 631.623 520.927C619.219 519.36 606.773 517.816 594.284 516.296C611.954 513.625 629.435 511.232 646.728 509.117ZM613.482 499.468C624.203 502.623 634.916 505.728 645.621 508.785C628.143 510.944 610.474 513.38 592.612 516.095C579.983 514.572 567.309 513.083 554.591 511.629C574.474 507.155 594.105 503.101 613.482 499.468ZM580.343 489.596C591.077 492.825 601.805 496.022 612.526 499.187C593.015 502.861 573.245 506.956 553.217 511.471C542.48 510.252 531.714 509.067 520.917 507.917C519.432 507.531 517.948 507.118 516.466 506.713C538.071 500.452 559.363 494.752 580.343 489.611V489.596ZM547.181 479.538C557.948 482.834 568.714 486.1 579.477 489.337C558.504 494.501 537.214 500.216 515.607 506.481C506.215 503.929 496.84 501.31 487.484 498.627C507.677 491.726 527.576 485.368 547.181 479.554V479.538ZM514.039 469.303C524.82 472.648 535.599 475.978 546.378 479.295C526.774 485.143 506.882 491.511 486.705 498.399C477.058 495.628 467.435 492.79 457.833 489.885C476.827 482.537 495.562 475.681 514.039 469.318V469.303ZM480.883 458.944C491.68 462.34 502.481 465.717 513.286 469.075C494.816 475.448 476.09 482.313 457.107 489.669C447.316 486.705 437.546 483.683 427.797 480.603C445.723 472.92 463.418 465.701 480.883 458.944ZM447.687 448.469C458.508 451.897 469.332 455.314 480.157 458.72C462.704 465.484 445.014 472.706 427.088 480.383C417.203 477.257 407.342 474.076 397.504 470.839C414.449 462.958 431.177 455.505 447.687 448.481V448.469ZM414.465 437.922C425.299 441.367 436.143 444.809 446.995 448.249C430.487 455.289 413.767 462.751 396.835 470.634C386.888 467.364 376.967 464.045 367.074 460.677C383.069 452.693 398.866 445.112 414.465 437.933V437.922ZM381.128 427.312L387.536 429.35L413.776 437.717C398.171 444.921 382.384 452.501 366.415 460.457C356.423 457.055 346.458 453.617 336.52 450.141C351.57 442.175 366.439 434.569 381.128 427.323V427.312ZM347.689 416.675C358.599 420.141 369.523 423.615 380.46 427.096C365.773 434.362 350.92 441.966 335.901 449.909C325.869 446.399 315.867 442.858 305.895 439.284C319.98 431.442 333.914 423.909 347.695 416.687L347.689 416.675ZM314.195 406.069C325.134 409.525 336.087 412.998 347.053 416.49C333.278 423.723 319.359 431.258 305.297 439.095C295.231 435.493 285.199 431.865 275.201 428.211C288.329 420.531 301.314 413.194 314.195 406.069ZM280.531 395.487C291.524 398.927 302.533 402.388 313.557 405.869C300.693 412.986 287.706 420.356 274.596 427.98C264.497 424.298 254.426 420.598 244.383 416.88C256.555 409.489 268.58 402.407 280.531 395.487ZM246.677 384.962C257.732 388.374 268.806 391.815 279.899 395.286C267.965 402.202 255.953 409.281 243.784 416.664C233.641 412.912 223.531 409.154 213.454 405.39C224.64 398.351 235.692 391.596 246.677 384.962ZM212.612 374.542C223.734 377.915 234.88 381.326 246.051 384.777C235.08 391.404 224.045 398.158 212.886 405.182C202.7 401.379 192.544 397.58 182.419 393.785C192.568 387.185 202.616 380.802 212.612 374.534V374.542ZM178.296 364.248C189.498 367.573 200.728 370.941 211.986 374.352C202.008 380.612 191.976 386.988 181.847 393.573L172.149 389.933L151.226 382.095C160.308 376.007 169.331 370.056 178.296 364.241V364.248ZM143.769 354.144C155.043 357.397 166.344 360.703 177.674 364.063C168.725 369.873 159.716 375.811 150.648 381.878C140.339 378.019 130.063 374.184 119.819 370.373C127.858 364.839 135.841 359.427 143.769 354.137V354.144ZM108.948 344.26C120.318 347.433 131.719 350.668 143.154 353.967C135.228 359.275 127.261 364.678 119.251 370.177C108.864 366.317 98.5125 362.487 88.1952 358.687C95.1574 353.762 102.053 349.004 108.948 344.253V344.26ZM56.3036 347.039C62.1623 342.825 67.9541 338.753 73.7659 334.635C85.2536 337.722 96.7781 340.87 108.339 344.079C101.461 348.822 94.5822 353.565 87.6368 358.455C77.1478 354.604 66.7034 350.798 56.3036 347.039ZM36.9453 361.192C43.2587 356.56 49.5855 351.875 55.8388 347.371C66.2453 351.122 76.6886 354.925 87.1686 358.78C79.9289 363.882 72.6156 369.15 65.2989 374.422L62.4331 373.083C53.8881 369.1 45.3888 365.136 36.9352 361.192H36.9453ZM16.0821 376.653C22.9262 371.527 29.7356 366.479 36.5106 361.508C45.0244 365.476 53.5671 369.464 62.1389 373.473L64.8575 374.742C57.1953 380.261 49.4897 385.886 41.7406 391.616C33.1398 386.632 24.5837 381.644 16.0721 376.653H16.0821ZM-6.18212 393.43C1.1479 387.83 8.40435 382.403 15.6642 376.965C24.1735 381.952 32.7241 386.938 41.3159 391.925C33.2569 397.866 25.1555 403.912 17.0118 410.064C9.22697 404.542 1.49233 398.998 -6.19215 393.43H-6.18212ZM-29.7037 411.635C-21.9724 405.602 -14.2478 399.593 -6.60346 393.746C1.08548 399.309 8.81566 404.841 16.5871 410.342C8.14687 416.71 -0.340172 423.181 -8.87403 429.755C-15.8652 423.775 -22.8084 417.735 -29.7037 411.635ZM-39 714C-33.2066 713.611 -27.434 712.882 -21.7049 711.815H-21.6246L-21.5645 711.769C-13.2825 705.262 -5.04516 698.863 3.14761 692.572C12.9539 693.1 22.7809 692.737 32.5379 691.488H32.6282L32.6917 691.438C42.0125 684.557 51.2743 677.822 60.4769 671.23C69.2383 671.81 78.0219 671.786 86.7807 671.156H86.8743L86.9446 671.11C97.4224 663.926 107.822 656.925 118.144 650.107C125.594 650.717 133.212 650.971 141.024 650.821H141.12L141.194 650.774C152.985 643.387 164.683 636.211 176.289 629.246C182.519 629.864 188.839 630.292 195.27 630.477H195.367L195.444 630.431C208.82 622.936 222.084 615.707 235.237 608.745C239.954 609.306 244.717 609.768 249.526 610.13H249.623L249.703 610.092C265.063 602.63 280.277 595.498 295.345 588.695C298.145 589.081 300.954 589.443 303.772 589.78H303.862L303.946 589.745C321.988 582.515 339.839 575.711 357.5 569.332L358.022 569.421H358.102L358.179 569.398C399.029 557.047 438.966 546.685 478.027 537.997C513.276 532.729 547.916 528.623 581.935 525.439C611.761 525.292 641.213 525.592 670.29 526.338C688.267 528.669 706.144 531.008 723.92 533.354L746.857 536.369C1082.16 622.199 1401.44 643.812 1632.99 411.615V410.886C1402.46 642.488 1084.68 621.921 750.699 536.87C1096.62 582.188 1402.4 615.792 1632.99 384.31V383.588C1401.7 616.201 1094.51 581.497 747.007 535.929C736.516 533.242 726.01 530.491 715.49 527.673C766.469 529.464 816.258 532.073 864.839 534.62C1169.74 550.591 1427.08 564.025 1632.99 357.004V356.282C1427.17 563.593 1169.83 550.158 864.88 534.203C815.669 531.629 765.229 528.985 713.547 527.195C702.86 524.339 692.159 521.432 681.445 518.476C773.438 513.999 860.777 514.84 943.747 515.639C1217.46 518.283 1443.67 520.46 1632.99 329.799V329.054C1443.75 520.004 1217.52 517.835 943.754 515.192C860.369 514.385 772.576 513.54 680.074 518.094C669.36 515.122 658.636 512.095 647.902 509.013C772.231 493.822 886.997 492.066 993.566 490.437C1246.78 486.578 1453.77 483.374 1632.99 302.482V301.752C1453.82 482.919 1246.83 486.103 993.56 489.974C886.669 491.61 771.539 493.37 646.788 508.681C636.023 505.593 625.253 502.472 614.479 499.318C766.356 470.877 902.79 466.779 1027.08 463.039C1266.07 455.86 1460.19 449.99 1632.99 275.188V274.454C1460.23 449.546 1266.1 455.409 1027.06 462.587C902.506 466.331 765.767 470.445 613.512 499.032C602.756 495.87 591.991 492.665 581.219 489.418C757.618 446.165 912.02 440.218 1050.43 434.9C1279.19 426.112 1464.31 418.964 1632.99 247.913V247.176C1464.34 418.512 1279.22 425.66 1050.4 434.452C911.769 439.774 757.1 445.737 580.357 489.16C569.567 485.913 558.773 482.638 547.977 479.337C746.9 420.214 916.768 412.955 1066.96 406.571C1288.23 397.154 1466.88 389.516 1632.98 220.638V219.897C1466.89 389.061 1288.25 396.703 1066.93 406.12C916.531 412.522 746.419 419.786 547.167 479.094C536.366 475.783 525.563 472.447 514.758 469.087C734.799 393.333 918.33 385.286 1078.73 378.281C1294.44 368.837 1468.36 361.188 1632.99 193.359V192.618C1468.37 360.732 1294.46 368.386 1078.7 377.83C918.119 384.862 734.36 392.924 514.022 468.844C503.205 465.483 492.393 462.104 481.585 458.705C721.66 365.858 917.524 357.421 1086.97 350.142C1298.57 341.057 1469.01 333.705 1633 166.085V165.344C1469.02 333.249 1298.58 340.605 1086.93 349.694C917.307 356.977 721.229 365.426 480.849 458.477C470.006 455.073 459.166 451.652 448.329 448.215C707.689 337.834 914.865 329.398 1092.53 322.184C1301.1 313.713 1469.03 306.862 1632.99 138.814V138.069C1469.03 306.407 1301.11 313.261 1092.5 321.733C914.675 328.954 707.274 337.398 447.637 447.995C436.778 444.557 425.926 441.112 415.08 437.659C693.092 309.44 910.803 301.297 1096.04 294.408C1302.43 286.735 1468.56 280.514 1632.99 111.539V110.794C1468.57 280.07 1302.44 286.284 1096.02 293.96C910.619 300.853 692.708 309.012 414.408 437.447L387.743 428.956L381.724 427.026C677.957 280.68 905.573 273.138 1097.92 266.797C1302.8 260.043 1467.72 254.57 1632.99 84.2449V83.4961C1467.72 254.123 1302.82 259.595 1097.91 266.357C905.402 272.702 677.59 280.251 381.068 426.822L348.267 416.401C662.381 251.68 899.403 244.999 1098.49 239.391C1302.41 233.652 1466.56 228.971 1632.99 57.001V56.2522C1466.55 228.534 1302.42 233.166 1098.47 238.92C899.232 244.532 662.017 251.224 347.625 416.177C336.652 412.691 325.695 409.217 314.754 405.757C646.424 222.491 892.461 216.798 1097.98 212.089C1301.38 207.427 1465.15 203.633 1632.99 29.6953V28.9504C1465.13 203.186 1301.38 206.976 1097.96 211.638C892.3 216.354 646.062 222.058 314.125 405.556C303.092 402.072 292.078 398.609 281.083 395.167C630.132 193.136 884.847 188.632 1096.57 184.953C1299.82 181.422 1463.49 178.539 1632.99 2.42441V1.67567C1463.48 178.091 1299.83 180.971 1096.56 184.506C884.689 188.188 629.771 192.692 280.441 394.974C269.346 391.5 258.269 388.056 247.212 384.642C613.505 163.603 876.664 160.469 1094.41 157.937C1297.82 155.575 1461.66 153.638 1632.99 -24.8504V-25.5991C1461.65 153.19 1297.83 155.124 1094.4 157.49C876.51 160.021 613.161 163.155 246.576 384.456C235.403 381.006 224.256 377.593 213.137 374.217C596.605 133.931 867.983 132.322 1091.63 131.045C1295.45 129.887 1459.68 128.914 1633 -52.1174V-52.8662C1459.66 128.467 1295.46 129.431 1091.62 130.597C867.832 131.874 596.267 133.48 212.515 374.028C201.257 370.611 190.023 367.242 178.814 363.92C579.424 104.113 858.864 104.179 1088.29 104.245C1292.76 104.302 1457.55 104.326 1633 -79.3922V-80.1641C1457.53 103.874 1292.77 103.847 1088.29 103.785C858.713 103.72 579.092 103.654 178.189 363.727C166.852 360.365 155.545 357.056 144.267 353.801C562.005 74.2489 849.367 76.0358 1084.49 77.5255C1289.81 78.8262 1455.31 79.8412 1632.99 -106.679V-107.427C1455.29 79.4128 1289.81 78.3785 1084.49 77.0779C849.226 75.5843 561.67 73.8012 143.652 353.623C132.213 350.325 120.809 347.094 109.44 343.932C544.325 44.3342 839.535 47.9119 1080.28 50.8992C1286.61 53.458 1452.96 55.5305 1632.99 -133.969V-134.718C1452.95 55.0519 1286.61 52.9948 1080.29 50.436C839.398 47.4449 543.994 43.875 108.821 343.724C97.2574 340.518 85.7318 337.371 74.2441 334.284C526.388 14.3347 829.38 19.7997 1075.72 24.3461C1283.19 28.1747 1450.53 31.2623 1632.99 -161.228V-162C1450.51 30.8107 1283.21 27.727 1075.74 23.8984C829.246 19.3481 526.06 13.8638 73.6221 334.125C35.6043 323.956 -1.97538 314.651 -39 306.495V306.97C-2.13255 315.075 35.28 324.338 73.1339 334.457C67.3388 338.56 61.567 342.616 55.7251 346.807C23.7867 335.318 -7.79392 324.311 -39 314.133V314.6C-7.9444 324.735 23.4824 335.692 55.2603 347.151C49.0271 351.643 42.7137 356.31 36.4203 360.937C11.006 349.1 -14.1107 337.491 -39 326.364V326.881C-14.2545 337.946 10.7284 349.49 35.9856 361.253C29.224 366.219 22.4313 371.256 15.6073 376.363C8.1034 371.981 0.629585 367.604 -6.81413 363.229C-17.5974 356.895 -28.326 350.605 -39 344.361V344.92C-28.4397 351.095 -17.8259 357.317 -7.15856 363.585C0.260632 367.941 7.7088 372.315 15.186 376.707C7.94288 382.11 0.703152 387.548 -6.61349 393.136C-17.4881 385.263 -28.2836 377.376 -39 369.474V370.092C-28.4129 377.877 -17.7545 385.661 -7.0248 393.441C-14.6591 399.277 -22.367 405.274 -30.0983 411.295C-33.0678 408.66 -36.035 406.018 -39 403.368V404.047C-36.171 406.576 -33.3353 409.098 -30.4929 411.612C-33.3219 413.819 -36.1576 416.044 -39 418.285V418.921C-36.0305 416.583 -33.0678 414.259 -30.1117 411.951C-23.2164 418.044 -16.2732 424.091 -9.28199 430.091C-18.099 436.904 -26.9672 443.82 -35.8867 450.839C-36.9278 449.771 -37.9656 448.697 -39 447.617V448.365C-38.0971 449.299 -37.1976 450.233 -36.2914 451.163L-39 453.317V453.958L-35.9403 451.538C-29.6981 457.97 -23.3958 464.296 -17.0334 470.515C-24.321 476.219 -31.6432 482.011 -39 487.89V488.534C-31.5184 482.565 -24.0769 476.678 -16.6755 470.874C-10.3621 477.049 -3.98177 483.095 2.46544 489.013C-7.94774 497.09 -18.4412 505.335 -29.0149 513.748C-32.3722 510.164 -35.7006 506.523 -39 502.826V503.598C-35.8321 507.141 -32.6409 510.635 -29.4262 514.08C-32.6096 516.62 -35.8009 519.176 -39 521.749V522.393C-35.685 519.73 -32.3778 517.084 -29.0784 514.455C-23.2353 520.699 -17.302 526.768 -11.2784 532.66C-20.4543 539.892 -29.6948 547.273 -39 554.801V555.45C-29.5833 547.841 -20.2202 540.366 -10.9105 533.022C-4.89134 538.899 1.22704 544.583 7.44463 550.074C-4.21028 559.135 -15.9532 568.398 -27.7843 577.862C-31.5741 574.159 -35.3094 570.35 -38.99 566.434V567.206C-35.4387 570.972 -31.8383 574.638 -28.1889 578.201C-31.7826 581.078 -35.3863 583.98 -39 586.908V587.557C-35.2681 584.531 -31.5474 581.531 -27.8378 578.556C-22.0415 584.199 -16.106 589.572 -10.031 594.677C-19.6171 602.257 -29.2735 610.002 -39 617.911V618.56C-29.1508 610.563 -19.3641 602.715 -9.6398 595.017C-3.56935 600.104 2.63932 604.9 8.98621 609.405C-3.28622 618.943 -15.669 628.74 -28.1621 638.795C-31.8405 636.188 -35.4531 633.447 -39 630.57V631.226C-35.5824 633.979 -32.1047 636.605 -28.5668 639.103C-32.0378 641.89 -35.5156 644.696 -39 647.521V648.169C-35.3684 645.223 -31.7469 642.3 -28.1354 639.401C-21.8761 643.802 -15.4088 647.796 -8.76367 651.365C-18.7756 659.236 -28.8543 667.267 -39 675.46V676.104C-28.6938 667.78 -18.4568 659.611 -8.28883 651.596C-1.54507 655.184 5.37814 658.304 12.4439 660.94C0.875923 669.848 -10.7868 678.959 -22.5442 688.273C-28.1127 686.894 -33.6072 685.145 -39 683.032L-39 683.564C-33.7571 685.604 -28.4196 687.305 -23.0124 688.659C-28.3204 692.855 -33.6496 697.105 -39 701.407V702.051C-33.4423 697.582 -27.9058 693.162 -22.3904 688.79C-14.2304 690.779 -5.94738 692.023 2.38183 692.51C-5.66603 698.686 -13.7629 704.979 -21.9089 711.391C-27.5711 712.44 -33.2753 713.159 -39 713.548V714Z" fill="white"/>
</g>
<defs>
<clipPath id="clip0_635_864">
<rect width="1440" height="714" fill="white"/>
</clipPath>
</defs>
</svg>
