<svg width="82" height="81" viewBox="0 0 82 81" fill="none" xmlns="http://www.w3.org/2000/svg">
<g clip-path="url(#clip0_603_3210)">
<path d="M13.4299 47.4067L37.5581 67.6197L67.1494 36.6185L24.3007 28.5779L16.4808 67.6197L6.54002 59.3405L58.9063 22.3407L32.6638 14.0925L51.6745 67.6197L74.7243 49.7378L19.6593 36.6185L23.399 67.6197L61.8281 27.4001L40.6321 10.4121H52.0203L1.75928 67.6197" stroke="url(#paint0_linear_603_3210)" stroke-width="0.5" stroke-miterlimit="10" stroke-linecap="round" stroke-linejoin="round"/>
<path d="M37.5584 5.43457L46.5987 20.9597L55.6145 36.5274L73.5133 67.53L73.6694 67.7996L73.3572 67.8022L1.7609 68.2666L0.630859 68.2743L1.20233 67.2991L19.301 36.4113C22.3467 31.2113 25.4066 26.0217 28.46 20.8591C31.5135 15.6965 34.5501 10.5623 37.5584 5.43457ZM37.5584 5.79577C34.6004 11.0009 31.6708 16.2022 28.7567 21.3725C25.8426 26.5454 22.9375 31.6887 20.017 36.8229L2.31818 67.9415L1.75961 66.974L73.3559 67.4384L73.1985 67.7106L55.3011 36.708L46.4181 21.2732L37.5584 5.79577Z" fill="url(#paint1_linear_603_3210)"/>
<path d="M46.3265 0.369141L55.3668 15.8943L64.3826 31.462L82.2813 62.4646L82.4374 62.7342L82.1253 62.7368L10.529 63.2012L9.39893 63.2089L9.9704 62.2337L28.0704 31.3472C31.1161 26.1472 34.176 20.9575 37.2294 15.795C40.2815 10.6311 43.3182 5.49689 46.3265 0.369141ZM46.3265 0.731632C43.3685 5.93678 40.4389 11.1381 37.5248 16.3084C34.6107 21.4813 31.7056 26.6245 28.785 31.7587L11.0862 62.8774L10.5277 61.9099L82.124 62.3743L81.9666 62.6465L64.0678 31.6426L55.1849 16.2078L46.3265 0.731632Z" fill="url(#paint2_linear_603_3210)"/>
<path d="M4.86178 72.6603C5.34682 73.0692 5.58934 73.6317 5.58934 74.3463C5.58934 75.0623 5.34682 75.6221 4.86178 76.0285C4.37674 76.4336 3.70594 76.6374 2.85067 76.6374H1.04983V78.7543H0.340332V72.0489H2.85067C3.70723 72.0463 4.37674 72.2514 4.86178 72.6603ZM4.35481 75.577C4.70569 75.2867 4.88113 74.8765 4.88113 74.3463C4.88113 73.8033 4.70569 73.3866 4.35481 73.0963C4.00393 72.8061 3.49567 72.6603 2.83261 72.6603H1.05112V76.013H2.83261C3.49567 76.013 4.00393 75.8672 4.35481 75.577Z" fill="url(#paint3_linear_603_3210)"/>
<path d="M11.7029 78.7526L10.1703 76.597C9.99748 76.6164 9.81946 76.6254 9.63499 76.6254H7.83157V78.7513H7.12207V72.0459H9.63241C10.4877 72.0459 11.1585 72.251 11.6435 72.6586C12.1286 73.0676 12.3711 73.63 12.3711 74.3447C12.3711 74.8684 12.2382 75.3109 11.9738 75.6721C11.7093 76.0333 11.33 76.2926 10.8386 76.4525L12.4769 78.7513H11.7029V78.7526ZM11.1365 75.5831C11.4874 75.289 11.6629 74.8774 11.6629 74.3473C11.6629 73.8042 11.4874 73.3875 11.1365 73.0972C10.7857 72.807 10.2774 72.6612 9.61435 72.6612H7.83157V76.0243H9.61306C10.2774 76.023 10.7857 75.8759 11.1365 75.5831Z" fill="url(#paint4_linear_603_3210)"/>
<path d="M15.1742 78.3641C14.6349 78.0674 14.2131 77.6611 13.91 77.1438C13.6068 76.6265 13.4546 76.046 13.4546 75.401C13.4546 74.756 13.6055 74.1742 13.91 73.6569C14.2131 73.1396 14.6349 72.7333 15.1742 72.4353C15.7134 72.1386 16.3158 71.9902 16.9802 71.9902C17.6445 71.9902 18.2431 72.1373 18.7758 72.4314C19.3086 72.7255 19.7291 73.1319 20.0362 73.653C20.3419 74.1742 20.4954 74.756 20.4954 75.401C20.4954 76.046 20.3419 76.6291 20.0362 77.149C19.7291 77.6701 19.3099 78.0765 18.7758 78.3706C18.2431 78.6647 17.6445 78.8118 16.9802 78.8118C16.3158 78.8105 15.7134 78.6621 15.1742 78.3641ZM18.4159 77.8185C18.8442 77.5785 19.1783 77.247 19.4221 76.8226C19.6647 76.3982 19.7859 75.9247 19.7859 75.401C19.7859 74.8773 19.6647 74.4038 19.4221 73.9781C19.1796 73.5537 18.8442 73.2209 18.4159 72.9822C17.9876 72.7423 17.5091 72.6223 16.9789 72.6223C16.4487 72.6223 15.9675 72.7423 15.5367 72.9822C15.1058 73.2222 14.7678 73.5537 14.5214 73.9781C14.275 74.4025 14.1525 74.8773 14.1525 75.401C14.1525 75.9247 14.275 76.3982 14.5214 76.8226C14.7678 77.2483 15.1058 77.5798 15.5367 77.8185C15.9675 78.0584 16.4487 78.1784 16.9789 78.1784C17.5091 78.1784 17.9889 78.0584 18.4159 77.8185Z" fill="url(#paint5_linear_603_3210)"/>
<path d="M26.6058 73.7138V78.1398C26.6058 78.9951 26.3969 79.6298 25.9789 80.0413C25.5596 80.4528 24.9301 80.6592 24.0865 80.6592C23.6208 80.6592 23.1783 80.5908 22.7603 80.4528C22.3411 80.316 22.0018 80.1251 21.74 79.8826L22.0844 79.3653C22.3269 79.582 22.6223 79.751 22.9706 79.8723C23.3189 79.9935 23.684 80.0542 24.0671 80.0542C24.7057 80.0542 25.1752 79.9058 25.4745 79.6091C25.7751 79.3124 25.9247 78.8506 25.9247 78.2249V77.5825C25.7144 77.9024 25.4384 78.145 25.0965 78.3101C24.7547 78.4765 24.3767 78.5591 23.9613 78.5591C23.4879 78.5591 23.0596 78.4546 22.6726 78.2482C22.2856 78.0405 21.9825 77.7502 21.7619 77.3761C21.5413 77.002 21.4316 76.5789 21.4316 76.1068C21.4316 75.6333 21.5426 75.2128 21.7619 74.8426C21.9825 74.4723 22.2843 74.1847 22.6675 73.9808C23.0506 73.777 23.4815 73.6738 23.96 73.6738C24.3883 73.6738 24.774 73.7603 25.1185 73.9318C25.4629 74.1047 25.7415 74.3537 25.9518 74.6787V73.7112H26.6058V73.7138ZM25.0166 77.7231C25.3094 77.567 25.539 77.3477 25.7015 77.0678C25.8641 76.7866 25.9454 76.468 25.9454 76.1093C25.9454 75.7507 25.8641 75.4334 25.7015 75.156C25.539 74.8787 25.312 74.6607 25.0217 74.5046C24.7315 74.3485 24.4012 74.2698 24.0297 74.2698C23.6659 74.2698 23.3383 74.3459 23.048 74.4994C22.7578 74.6529 22.5307 74.8697 22.3682 75.1509C22.2056 75.4321 22.1244 75.7507 22.1244 76.1093C22.1244 76.468 22.2056 76.7866 22.3682 77.0678C22.5307 77.3477 22.7578 77.567 23.048 77.7231C23.3383 77.8792 23.6659 77.9579 24.0297 77.9579C24.3935 77.9579 24.7224 77.8792 25.0166 77.7231Z" fill="url(#paint6_linear_603_3210)"/>
<path d="M29.8774 73.9338C30.1935 73.7609 30.5844 73.6758 31.0513 73.6758V74.3363L30.8888 74.3272C30.3586 74.3272 29.9432 74.4898 29.644 74.8161C29.3434 75.1412 29.1937 75.5979 29.1937 76.1861V78.7532H28.5139V73.7145H29.1654V74.7013C29.3227 74.3621 29.5614 74.1066 29.8774 73.9338Z" fill="url(#paint7_linear_603_3210)"/>
<path d="M35.5432 74.1686C35.894 74.4975 36.0695 74.9851 36.0695 75.6288V78.7519H35.418V77.9663C35.2645 78.2282 35.0401 78.4333 34.7434 78.5791C34.4467 78.7261 34.0932 78.7997 33.6843 78.7997C33.1218 78.7997 32.6755 78.6655 32.3427 78.3972C32.0111 78.1289 31.8447 77.7741 31.8447 77.3342C31.8447 76.9072 31.9995 76.5615 32.3091 76.2996C32.6187 76.0378 33.1115 75.9075 33.7888 75.9075H35.3884V75.6018C35.3884 75.167 35.2671 74.8368 35.0246 74.6097C34.7821 74.3827 34.4273 74.2692 33.9616 74.2692C33.6417 74.2692 33.336 74.3221 33.0418 74.4279C32.7477 74.5336 32.4962 74.6781 32.2859 74.8639L31.9789 74.3556C32.2343 74.1389 32.5413 73.9712 32.8987 73.8525C33.256 73.7338 33.6327 73.6758 34.0287 73.6758C34.6879 73.6758 35.1923 73.8396 35.5432 74.1686ZM34.7769 78.0012C35.0517 77.8257 35.2555 77.5716 35.3896 77.2388V76.4157H33.8094C32.9477 76.4157 32.5168 76.7163 32.5168 77.3162C32.5168 77.609 32.629 77.8412 32.8522 78.0102C33.0754 78.1792 33.3889 78.2643 33.7913 78.2643C34.1732 78.2643 34.5021 78.1766 34.7769 78.0012Z" fill="url(#paint8_linear_603_3210)"/>
<path d="M45.6917 74.2215C46.0516 74.5852 46.2322 75.1219 46.2322 75.8314V78.7532H45.5524V75.8985C45.5524 75.3747 45.4259 74.9761 45.1744 74.7013C44.9216 74.4266 44.5655 74.2898 44.1063 74.2898C43.5825 74.2898 43.171 74.4511 42.8705 74.7736C42.5699 75.0961 42.4202 75.5411 42.4202 76.11V78.7532H41.7404V75.8985C41.7404 75.3747 41.614 74.9761 41.3624 74.7013C41.1109 74.4266 40.751 74.2898 40.2853 74.2898C39.768 74.2898 39.3578 74.4511 39.0546 74.7736C38.7515 75.0961 38.5993 75.5411 38.5993 76.11V78.7532H37.9194V73.7145H38.5709V74.6343C38.7489 74.3272 38.9979 74.0912 39.3178 73.9248C39.6364 73.7583 40.0041 73.6758 40.4195 73.6758C40.8413 73.6758 41.2064 73.7648 41.516 73.9441C41.8256 74.1234 42.0565 74.3879 42.21 74.7387C42.3944 74.4072 42.6615 74.1466 43.0098 73.9583C43.3581 73.77 43.7554 73.6758 44.203 73.6758C44.8351 73.6758 45.3318 73.8577 45.6917 74.2215Z" fill="url(#paint9_linear_603_3210)"/>
<path d="M51.6397 72.6606H49.2842V72.0479H54.706V72.6606H52.3492V78.7533H51.6397V72.6606Z" fill="url(#paint10_linear_603_3210)"/>
<path d="M58.6896 74.1686C59.0405 74.4975 59.216 74.9851 59.216 75.6288V78.7519H58.5645V77.9663C58.411 78.2282 58.1865 78.4333 57.8898 78.5791C57.5931 78.7261 57.2397 78.7997 56.8308 78.7997C56.2683 78.7997 55.822 78.6655 55.4891 78.3972C55.1576 78.1289 54.9912 77.7741 54.9912 77.3342C54.9912 76.9072 55.146 76.5615 55.4556 76.2996C55.7652 76.0378 56.258 75.9075 56.9352 75.9075H58.5348V75.6018C58.5348 75.167 58.4136 74.8368 58.1711 74.6097C57.9285 74.3827 57.5738 74.2692 57.1081 74.2692C56.7882 74.2692 56.4824 74.3221 56.1883 74.4279C55.8942 74.5336 55.6427 74.6781 55.4324 74.8639L55.1254 74.3556C55.3808 74.1389 55.6878 73.9712 56.0451 73.8525C56.4025 73.7338 56.7792 73.6758 57.1752 73.6758C57.8344 73.6758 58.3388 73.8396 58.6896 74.1686ZM57.9234 78.0012C58.1981 77.8257 58.402 77.5716 58.5361 77.2388V76.4157H56.9559C56.0942 76.4157 55.6633 76.7163 55.6633 77.3162C55.6633 77.609 55.7755 77.8412 55.9987 78.0102C56.2219 78.1792 56.5353 78.2643 56.9378 78.2643C57.3197 78.2643 57.6486 78.1766 57.9234 78.0012Z" fill="url(#paint11_linear_603_3210)"/>
<path d="M61.8359 78.4746C61.4438 78.2579 61.1355 77.9521 60.9123 77.56C60.6891 77.1665 60.5769 76.7253 60.5769 76.2326C60.5769 75.7411 60.6878 75.2999 60.9123 74.9103C61.1355 74.5207 61.4438 74.2176 61.8359 74.0009C62.2294 73.7841 62.6744 73.6758 63.1724 73.6758C63.6071 73.6758 63.9941 73.7609 64.336 73.9299C64.6778 74.0989 64.9474 74.3466 65.1448 74.6717L64.6378 75.0161C64.4714 74.7671 64.2611 74.5801 64.0057 74.4562C63.7503 74.3311 63.473 74.2692 63.1724 74.2692C62.8086 74.2692 62.4809 74.3505 62.1907 74.513C61.9004 74.6755 61.6734 74.9077 61.5109 75.207C61.3483 75.5076 61.2671 75.8494 61.2671 76.2313C61.2671 76.6209 61.3483 76.964 61.5109 77.2607C61.6734 77.5574 61.9004 77.787 62.1907 77.9508C62.4809 78.1134 62.8086 78.1947 63.1724 78.1947C63.4717 78.1947 63.7503 78.134 64.0057 78.0128C64.2611 77.8915 64.4727 77.707 64.6378 77.4581L65.1448 77.8025C64.9474 78.1276 64.6752 78.3765 64.3308 78.5442C63.9864 78.7145 63.5994 78.7984 63.1711 78.7984C62.6744 78.7997 62.2294 78.6913 61.8359 78.4746Z" fill="url(#paint12_linear_603_3210)"/>
<path d="M69.189 78.4467C69.0613 78.5615 68.9026 78.6492 68.7143 78.7098C68.5259 78.7705 68.3298 78.8014 68.1247 78.8014C67.6513 78.8014 67.2875 78.6737 67.0321 78.4183C66.7767 78.1629 66.649 77.8017 66.649 77.336V74.2903H65.7485V73.7149H66.649V72.6133H67.3288V73.7149H68.8613V74.2903H67.3288V77.2986C67.3288 77.5978 67.4036 77.8275 67.5533 77.9836C67.7029 78.1396 67.9183 78.2183 68.1995 78.2183C68.3401 78.2183 68.4756 78.1964 68.6059 78.1513C68.7375 78.1074 68.8497 78.0429 68.9464 77.959L69.189 78.4467Z" fill="url(#paint13_linear_603_3210)"/>
<path d="M70.4147 72.4685C70.3192 72.3731 70.2715 72.2583 70.2715 72.1241C70.2715 71.9964 70.3192 71.8842 70.4147 71.7887C70.5101 71.6932 70.6288 71.6455 70.7694 71.6455C70.91 71.6455 71.0274 71.692 71.1242 71.7848C71.2196 71.8777 71.2674 71.9874 71.2674 72.1151C71.2674 72.2557 71.2196 72.3731 71.1242 72.4698C71.0287 72.5653 70.91 72.613 70.7694 72.613C70.6288 72.613 70.5101 72.564 70.4147 72.4685ZM70.4237 73.7134H71.1035V78.7521H70.4237V73.7134Z" fill="url(#paint14_linear_603_3210)"/>
<path d="M73.7517 78.4746C73.3596 78.2579 73.0512 77.9521 72.8281 77.56C72.6049 77.1665 72.4927 76.7253 72.4927 76.2326C72.4927 75.7411 72.6036 75.2999 72.8281 74.9103C73.0512 74.5207 73.3596 74.2176 73.7517 74.0009C74.1452 73.7841 74.5902 73.6758 75.0882 73.6758C75.5229 73.6758 75.9099 73.7609 76.2517 73.9299C76.5936 74.0989 76.8632 74.3466 77.0606 74.6717L76.5536 75.0161C76.3872 74.7671 76.1769 74.5801 75.9215 74.4562C75.6661 74.3311 75.3887 74.2692 75.0882 74.2692C74.7244 74.2692 74.3967 74.3505 74.1065 74.513C73.8162 74.6755 73.5892 74.9077 73.4266 75.207C73.2641 75.5076 73.1828 75.8494 73.1828 76.2313C73.1828 76.6209 73.2641 76.964 73.4266 77.2607C73.5892 77.5574 73.8162 77.787 74.1065 77.9508C74.3967 78.1134 74.7244 78.1947 75.0882 78.1947C75.3874 78.1947 75.6661 78.134 75.9215 78.0128C76.1769 77.8915 76.3885 77.707 76.5536 77.4581L77.0606 77.8025C76.8632 78.1276 76.591 78.3765 76.2466 78.5442C75.9021 78.7145 75.5151 78.7984 75.0869 78.7984C74.5902 78.7997 74.1452 78.6913 73.7517 78.4746Z" fill="url(#paint15_linear_603_3210)"/>
<path d="M78.571 78.6233C78.1969 78.5059 77.9053 78.3575 77.6951 78.1782L78.0021 77.6416C78.2124 77.808 78.4781 77.9434 78.7967 78.0479C79.1166 78.1537 79.4482 78.2053 79.7926 78.2053C80.2531 78.2053 80.5924 78.133 80.813 77.9899C81.0336 77.8454 81.1432 77.6429 81.1432 77.381C81.1432 77.1952 81.0826 77.0494 80.9613 76.945C80.8401 76.8392 80.6866 76.7592 80.5008 76.705C80.3151 76.6508 80.07 76.5979 79.7629 76.5476C79.354 76.4702 79.0251 76.3928 78.7761 76.3129C78.5271 76.2329 78.3143 76.0974 78.1388 75.9065C77.9634 75.7143 77.8757 75.4498 77.8757 75.1119C77.8757 74.69 78.0511 74.3456 78.402 74.0773C78.7529 73.809 79.2418 73.6748 79.8674 73.6748C80.1925 73.6748 80.5189 73.7174 80.8452 73.8038C81.1703 73.8902 81.4386 74.0038 81.6502 74.1444L81.3535 74.69C80.9381 74.4024 80.4428 74.2592 79.8687 74.2592C79.434 74.2592 79.1076 74.3366 78.887 74.4888C78.6664 74.6423 78.5568 74.8436 78.5568 75.0925C78.5568 75.2847 78.6187 75.4369 78.7438 75.553C78.869 75.6679 79.0238 75.753 79.2082 75.8072C79.3927 75.8614 79.6494 75.9181 79.9745 75.9749C80.377 76.051 80.6995 76.1284 80.942 76.2045C81.1845 76.2806 81.3922 76.4122 81.5651 76.5967C81.7379 76.7824 81.8231 77.0378 81.8231 77.3629C81.8231 77.8041 81.6399 78.1537 81.2722 78.4117C80.9046 78.6697 80.3963 78.8 79.7449 78.8C79.3347 78.8 78.9438 78.7419 78.571 78.6233Z" fill="url(#paint16_linear_603_3210)"/>
<path d="M50.5743 28.9621C51.0296 28.9621 51.3986 28.593 51.3986 28.1378C51.3986 27.6825 51.0296 27.3135 50.5743 27.3135C50.1191 27.3135 49.75 27.6825 49.75 28.1378C49.75 28.593 50.1191 28.9621 50.5743 28.9621Z" fill="url(#paint17_linear_603_3210)"/>
<path d="M34.3668 31.2853C34.822 31.2853 35.1911 30.9163 35.1911 30.461C35.1911 30.0058 34.822 29.6367 34.3668 29.6367C33.9115 29.6367 33.5425 30.0058 33.5425 30.461C33.5425 30.9163 33.9115 31.2853 34.3668 31.2853Z" fill="url(#paint18_linear_603_3210)"/>
<path d="M66.5973 56.8303C67.0525 56.8303 67.4216 56.4612 67.4216 56.006C67.4216 55.5507 67.0525 55.1816 66.5973 55.1816C66.142 55.1816 65.7729 55.5507 65.7729 56.006C65.7729 56.4612 66.142 56.8303 66.5973 56.8303Z" fill="url(#paint19_linear_603_3210)"/>
<path d="M59.8961 45.1476C60.3513 45.1476 60.7204 44.7786 60.7204 44.3233C60.7204 43.8681 60.3513 43.499 59.8961 43.499C59.4408 43.499 59.0718 43.8681 59.0718 44.3233C59.0718 44.7786 59.4408 45.1476 59.8961 45.1476Z" fill="url(#paint20_linear_603_3210)"/>
<path d="M47.3414 16.4709C47.7967 16.4709 48.1657 16.1018 48.1657 15.6466C48.1657 15.1913 47.7967 14.8223 47.3414 14.8223C46.8861 14.8223 46.5171 15.1913 46.5171 15.6466C46.5171 16.1018 46.8861 16.4709 47.3414 16.4709Z" fill="url(#paint21_linear_603_3210)"/>
<path d="M47.8551 57.6545C48.3103 57.6545 48.6794 57.2854 48.6794 56.8302C48.6794 56.3749 48.3103 56.0059 47.8551 56.0059C47.3998 56.0059 47.0308 56.3749 47.0308 56.8302C47.0308 57.2854 47.3998 57.6545 47.8551 57.6545Z" fill="url(#paint22_linear_603_3210)"/>
<path d="M40.2843 36.2414C40.7395 36.2414 41.1086 35.8723 41.1086 35.4171C41.1086 34.9618 40.7395 34.5928 40.2843 34.5928C39.829 34.5928 39.46 34.9618 39.46 35.4171C39.46 35.8723 39.829 36.2414 40.2843 36.2414Z" fill="url(#paint23_linear_603_3210)"/>
</g>
<defs>
<linearGradient id="paint0_linear_603_3210" x1="1.56619" y1="39.0163" x2="74.9177" y2="39.0163" gradientUnits="userSpaceOnUse">
<stop stop-color="#554398"/>
<stop offset="1" stop-color="#D85CA1" stop-opacity="0.8"/>
</linearGradient>
<linearGradient id="paint1_linear_603_3210" x1="0.630176" y1="36.8529" x2="74.461" y2="36.8529" gradientUnits="userSpaceOnUse">
<stop stop-color="#523E9B"/>
<stop offset="1" stop-color="#FF50B2" stop-opacity="0.8"/>
</linearGradient>
<linearGradient id="paint2_linear_603_3210" x1="9.39807" y1="31.7881" x2="83.2289" y2="31.7881" gradientUnits="userSpaceOnUse">
<stop stop-color="#5E49AA"/>
<stop offset="0.9986" stop-color="#F266B5" stop-opacity="0.8"/>
</linearGradient>
<linearGradient id="paint3_linear_603_3210" x1="0.341093" y1="75.3994" x2="5.59053" y2="75.3994" gradientUnits="userSpaceOnUse">
<stop stop-color="#302655"/>
<stop offset="1" stop-color="#895070" stop-opacity="0.8"/>
</linearGradient>
<linearGradient id="paint4_linear_603_3210" x1="7.12317" y1="75.4003" x2="12.4781" y2="75.4003" gradientUnits="userSpaceOnUse">
<stop stop-color="#302655"/>
<stop offset="1" stop-color="#895070" stop-opacity="0.8"/>
</linearGradient>
<linearGradient id="paint5_linear_603_3210" x1="13.4546" y1="75.4001" x2="20.4951" y2="75.4001" gradientUnits="userSpaceOnUse">
<stop stop-color="#302655"/>
<stop offset="1" stop-color="#895070" stop-opacity="0.8"/>
</linearGradient>
<linearGradient id="paint6_linear_603_3210" x1="21.4334" y1="77.1676" x2="26.6058" y2="77.1676" gradientUnits="userSpaceOnUse">
<stop stop-color="#302655"/>
<stop offset="1" stop-color="#895070" stop-opacity="0.8"/>
</linearGradient>
<linearGradient id="paint7_linear_603_3210" x1="28.5121" y1="76.2139" x2="31.0506" y2="76.2139" gradientUnits="userSpaceOnUse">
<stop stop-color="#302655"/>
<stop offset="1" stop-color="#895070" stop-opacity="0.8"/>
</linearGradient>
<linearGradient id="paint8_linear_603_3210" x1="31.8457" y1="76.2377" x2="36.0698" y2="76.2377" gradientUnits="userSpaceOnUse">
<stop stop-color="#302655"/>
<stop offset="1" stop-color="#895070" stop-opacity="0.8"/>
</linearGradient>
<linearGradient id="paint9_linear_603_3210" x1="37.9188" y1="76.2139" x2="46.2331" y2="76.2139" gradientUnits="userSpaceOnUse">
<stop stop-color="#302655"/>
<stop offset="1" stop-color="#895070" stop-opacity="0.8"/>
</linearGradient>
<linearGradient id="paint10_linear_603_3210" x1="49.2836" y1="75.3997" x2="54.7049" y2="75.3997" gradientUnits="userSpaceOnUse">
<stop stop-color="#302655"/>
<stop offset="1" stop-color="#895070" stop-opacity="0.8"/>
</linearGradient>
<linearGradient id="paint11_linear_603_3210" x1="54.9925" y1="76.2377" x2="59.2166" y2="76.2377" gradientUnits="userSpaceOnUse">
<stop stop-color="#302655"/>
<stop offset="1" stop-color="#895070" stop-opacity="0.8"/>
</linearGradient>
<linearGradient id="paint12_linear_603_3210" x1="60.5771" y1="76.2377" x2="65.146" y2="76.2377" gradientUnits="userSpaceOnUse">
<stop stop-color="#302655"/>
<stop offset="1" stop-color="#895070" stop-opacity="0.8"/>
</linearGradient>
<linearGradient id="paint13_linear_603_3210" x1="65.7495" y1="75.7065" x2="69.1886" y2="75.7065" gradientUnits="userSpaceOnUse">
<stop stop-color="#302655"/>
<stop offset="1" stop-color="#895070" stop-opacity="0.8"/>
</linearGradient>
<linearGradient id="paint14_linear_603_3210" x1="70.2709" y1="75.1988" x2="71.2668" y2="75.1988" gradientUnits="userSpaceOnUse">
<stop stop-color="#302655"/>
<stop offset="1" stop-color="#895070" stop-opacity="0.8"/>
</linearGradient>
<linearGradient id="paint15_linear_603_3210" x1="72.4928" y1="76.2377" x2="77.0617" y2="76.2377" gradientUnits="userSpaceOnUse">
<stop stop-color="#302655"/>
<stop offset="1" stop-color="#895070" stop-opacity="0.8"/>
</linearGradient>
<linearGradient id="paint16_linear_603_3210" x1="77.6938" y1="76.2381" x2="81.8226" y2="76.2381" gradientUnits="userSpaceOnUse">
<stop stop-color="#302655"/>
<stop offset="1" stop-color="#895070" stop-opacity="0.8"/>
</linearGradient>
<linearGradient id="paint17_linear_603_3210" x1="49.7494" y1="28.1379" x2="51.398" y2="28.1379" gradientUnits="userSpaceOnUse">
<stop stop-color="#302655"/>
<stop offset="1" stop-color="#895070" stop-opacity="0.8"/>
</linearGradient>
<linearGradient id="paint18_linear_603_3210" x1="33.5421" y1="30.4607" x2="35.1907" y2="30.4607" gradientUnits="userSpaceOnUse">
<stop stop-color="#302655"/>
<stop offset="1" stop-color="#895070" stop-opacity="0.8"/>
</linearGradient>
<linearGradient id="paint19_linear_603_3210" x1="65.7734" y1="56.0057" x2="67.4221" y2="56.0057" gradientUnits="userSpaceOnUse">
<stop stop-color="#302655"/>
<stop offset="1" stop-color="#895070" stop-opacity="0.8"/>
</linearGradient>
<linearGradient id="paint20_linear_603_3210" x1="59.0719" y1="44.3234" x2="60.7205" y2="44.3234" gradientUnits="userSpaceOnUse">
<stop stop-color="#302655"/>
<stop offset="1" stop-color="#895070" stop-opacity="0.8"/>
</linearGradient>
<linearGradient id="paint21_linear_603_3210" x1="46.5166" y1="15.6466" x2="48.1652" y2="15.6466" gradientUnits="userSpaceOnUse">
<stop stop-color="#302655"/>
<stop offset="1" stop-color="#895070" stop-opacity="0.8"/>
</linearGradient>
<linearGradient id="paint22_linear_603_3210" x1="47.0311" y1="56.8299" x2="48.6798" y2="56.8299" gradientUnits="userSpaceOnUse">
<stop stop-color="#302655"/>
<stop offset="1" stop-color="#895070" stop-opacity="0.8"/>
</linearGradient>
<linearGradient id="paint23_linear_603_3210" x1="39.4597" y1="35.4166" x2="41.1084" y2="35.4166" gradientUnits="userSpaceOnUse">
<stop stop-color="#302655"/>
<stop offset="1" stop-color="#895070" stop-opacity="0.8"/>
</linearGradient>
<clipPath id="clip0_603_3210">
<rect width="82" height="81" fill="white"/>
</clipPath>
</defs>
</svg>
