<svg width="57" height="57" viewBox="0 0 57 57" fill="none" xmlns="http://www.w3.org/2000/svg">
<g filter="url(#filter0_i_635_984)">
<circle cx="28.5" cy="28.5" r="28.5" fill="#2E9F8B"/>
</g>
<g opacity="0.8" clip-path="url(#clip0_635_984)">
<path d="M40.1475 29.0696L34.95 26.6771V19.8221C34.9476 19.6783 34.9039 19.5382 34.8241 19.4185C34.7443 19.2988 34.6318 19.2046 34.5 19.1471L28.875 16.5596C28.7762 16.5139 28.6687 16.4902 28.56 16.4902C28.4512 16.4902 28.3437 16.5139 28.245 16.5596L22.62 19.1471C22.4898 19.2073 22.3796 19.3037 22.3025 19.4246C22.2254 19.5456 22.1846 19.6861 22.185 19.8296V26.6846L17.01 29.0696C16.8798 29.1298 16.7696 29.2262 16.6925 29.3471C16.6154 29.4681 16.5746 29.6086 16.575 29.7521V37.0871C16.5746 37.2305 16.6154 37.3711 16.6925 37.4921C16.7696 37.613 16.8798 37.7093 17.01 37.7696L22.635 40.3571C22.7337 40.4028 22.8412 40.4264 22.95 40.4264C23.0587 40.4264 23.1662 40.4028 23.265 40.3571L28.575 37.9121L33.885 40.3571C33.9837 40.4028 34.0912 40.4264 34.2 40.4264C34.3087 40.4264 34.4162 40.4028 34.515 40.3571L40.14 37.7696C40.2701 37.7093 40.3803 37.613 40.4574 37.4921C40.5345 37.3711 40.5753 37.2305 40.575 37.0871V29.7521C40.576 29.6095 40.5363 29.4695 40.4606 29.3486C40.3849 29.2277 40.2762 29.1309 40.1475 29.0696ZM38.04 29.7521L34.2075 31.4996L30.375 29.7521L34.2075 27.9896L38.04 29.7521ZM28.575 18.0596L32.4075 19.8221L28.575 21.5846L24.75 19.8221L28.575 18.0596ZM22.95 27.9821L26.7825 29.7446L22.95 31.4996L19.1175 29.7521L22.95 27.9821ZM27.825 36.5996L22.95 38.8496L18.075 36.5996V30.9221L22.635 32.9996C22.7316 33.0431 22.8364 33.0655 22.9425 33.0655C23.0485 33.0655 23.1533 33.0431 23.25 32.9996L27.81 30.8996L27.825 36.5996ZM23.7 26.6771V20.9996L28.26 23.0996C28.3587 23.1453 28.4662 23.1689 28.575 23.1689C28.6837 23.1689 28.7912 23.1453 28.89 23.0996L33.45 20.9996V26.6846L28.575 28.9346L23.7 26.6771ZM39.0825 36.6071L34.2075 38.8571L29.325 36.6071V30.9146L33.8925 32.9996C33.9881 33.042 34.0916 33.0639 34.1962 33.0639C34.3008 33.0639 34.4043 33.042 34.5 32.9996L39.06 30.8996L39.0825 36.6071Z" fill="#F8F8F8"/>
</g>
<defs>
<filter id="filter0_i_635_984" x="0" y="0" width="57" height="57" filterUnits="userSpaceOnUse" color-interpolation-filters="sRGB">
<feFlood flood-opacity="0" result="BackgroundImageFix"/>
<feBlend mode="normal" in="SourceGraphic" in2="BackgroundImageFix" result="shape"/>
<feColorMatrix in="SourceAlpha" type="matrix" values="0 0 0 0 0 0 0 0 0 0 0 0 0 0 0 0 0 0 127 0" result="hardAlpha"/>
<feOffset/>
<feGaussianBlur stdDeviation="2"/>
<feComposite in2="hardAlpha" operator="arithmetic" k2="-1" k3="1"/>
<feColorMatrix type="matrix" values="0 0 0 0 1 0 0 0 0 1 0 0 0 0 1 0 0 0 1 0"/>
<feBlend mode="normal" in2="shape" result="effect1_innerShadow_635_984"/>
</filter>
<clipPath id="clip0_635_984">
<rect width="27" height="27" fill="white" transform="translate(15 15)"/>
</clipPath>
</defs>
</svg>
