<svg width="42" height="52" viewBox="0 0 42 52" fill="none" xmlns="http://www.w3.org/2000/svg">
<path d="M33.0968 2C34.2945 2 35.4432 2.52678 36.2902 3.46447C37.1371 4.40215 37.6129 5.67392 37.6129 7V47C37.6129 48.3261 37.1371 49.5979 36.2902 50.5355C35.4432 51.4732 34.2945 52 33.0968 52H10.5161C9.31838 52 8.16968 51.4732 7.32274 50.5355C6.4758 49.5979 6 48.3261 6 47V7C6 5.67392 6.4758 4.40215 7.32274 3.46447C8.16968 2.52678 9.31838 2 10.5161 2L33.0968 2ZM34.4516 40.47H9.16129V47C9.16129 47.3978 9.30403 47.7794 9.55811 48.0607C9.8122 48.342 10.1568 48.5 10.5161 48.5H33.0968C33.4561 48.5 33.8007 48.342 34.0548 48.0607C34.3089 47.7794 34.4516 47.3978 34.4516 47V40.47ZM21.8065 42C22.4053 42 22.9797 42.2634 23.4031 42.7322C23.8266 43.2011 24.0645 43.837 24.0645 44.5C24.0645 45.163 23.8266 45.7989 23.4031 46.2678C22.9797 46.7366 22.4053 47 21.8065 47C21.2076 47 20.6332 46.7366 20.2098 46.2678C19.7863 45.7989 19.5484 45.163 19.5484 44.5C19.5484 43.837 19.7863 43.2011 20.2098 42.7322C20.6332 42.2634 21.2076 42 21.8065 42ZM33.0968 5.5H10.5161C10.1568 5.5 9.8122 5.65804 9.55811 5.93934C9.30403 6.22064 9.16129 6.60218 9.16129 7V36.97H34.4516V7C34.4516 6.60218 34.3089 6.22064 34.0548 5.93934C33.8007 5.65804 33.4561 5.5 33.0968 5.5Z" fill="#C9C9C9"/>
<path d="M30.9644 25.5168L29.855 15.5168C29.8144 15.1335 29.6328 14.779 29.3455 14.5221C29.0582 14.2651 28.6858 14.124 28.3003 14.1262H25.941C25.7302 13.2362 25.2252 12.4433 24.5078 11.876C23.7903 11.3086 22.9025 11 21.9878 11C21.0732 11 20.1853 11.3086 19.4679 11.876C18.7505 12.4433 18.2455 13.2362 18.0347 14.1262H15.6753C15.2899 14.124 14.9174 14.2651 14.6302 14.5221C14.3429 14.779 14.1613 15.1335 14.1206 15.5168L13.0113 25.5168C12.9847 25.7343 13.0052 25.9549 13.0712 26.1638C13.1373 26.3727 13.2474 26.565 13.3941 26.7277C13.5403 26.892 13.7196 27.0235 13.9202 27.1137C14.1208 27.2039 14.3382 27.2508 14.5581 27.2512H29.4175C29.6375 27.2508 29.8548 27.2039 30.0554 27.1137C30.256 27.0235 30.4353 26.892 30.5816 26.7277C30.7283 26.565 30.8384 26.3727 30.9045 26.1638C30.9705 25.9549 30.9909 25.7343 30.9644 25.5168ZM21.9878 12.8762C22.4018 12.8761 22.8073 12.9936 23.1572 13.2149C23.5071 13.4361 23.787 13.7521 23.9644 14.1262H20.0113C20.1887 13.7521 20.4686 13.4361 20.8185 13.2149C21.1684 12.9936 21.5739 12.8761 21.9878 12.8762ZM14.9097 25.3762L15.9488 16.0012H17.9253V17.5637C17.9253 17.8123 18.0241 18.0508 18.1999 18.2266C18.3757 18.4024 18.6142 18.5012 18.8628 18.5012C19.1115 18.5012 19.3499 18.4024 19.5257 18.2266C19.7016 18.0508 19.8003 17.8123 19.8003 17.5637V16.0012H24.1753V17.5637C24.1753 17.8123 24.2741 18.0508 24.4499 18.2266C24.6257 18.4024 24.8642 18.5012 25.1128 18.5012C25.3615 18.5012 25.5999 18.4024 25.7757 18.2266C25.9516 18.0508 26.0503 17.8123 26.0503 17.5637V16.0012H28.0269L29.066 25.3762H14.9097Z" fill="#C9C9C9"/>
</svg>
