<svg width="49" height="19" viewBox="0 0 49 19" fill="none" xmlns="http://www.w3.org/2000/svg">
<g clip-path="url(#clip0_656_838)">
<path d="M7.95778 0H5.38519C2.81249 0 0.598881 1.89102 0.598881 5.55481C0.598881 7.74132 1.67573 9.39593 3.53046 10.2232L0.0603593 16.369C-0.0592696 16.5464 0.0603592 16.7236 0.239898 16.7236H1.85527C1.9749 16.7236 2.09453 16.6645 2.15434 16.5464L5.32537 10.5187H6.46204V16.5464C6.46204 16.6054 6.52195 16.7236 6.64158 16.7236H8.07751C8.19713 16.7236 8.25695 16.6645 8.25695 16.5464V0.236318C8.19713 0.0590796 8.13732 0 7.95778 0ZM6.46204 9.10053H5.50481C1.37666 9.10053 1.67573 1.41829 5.32537 1.41829H6.52195V9.10053H6.46204Z" fill="#FF0000"/>
<path d="M16.5727 5.55464H15.1369C15.0173 5.55464 14.9574 5.61372 14.9574 5.73197V9.98665H12.3248V5.73197C12.3248 5.61381 12.265 5.55464 12.1454 5.55464H10.7693C10.6497 5.55464 10.5898 5.61372 10.5898 5.73197V16.5462C10.5898 16.6643 10.6497 16.7234 10.7693 16.7234H12.2052C12.3248 16.7234 12.3848 16.6643 12.3848 16.5462V11.3459H15.0172V16.5462C15.0172 16.6643 15.077 16.7234 15.1967 16.7234H16.6325C16.7522 16.7234 16.8121 16.6643 16.8121 16.5462V5.73197C16.7523 5.61381 16.6924 5.55464 16.5727 5.55464ZM48.8805 15.2461C48.8805 15.1871 48.8207 15.1871 48.7608 15.1871C48.1625 15.1871 44.513 16.9009 44.513 11.2278C44.513 8.74588 45.4702 5.25933 47.7437 7.32759C47.8035 7.38667 47.8633 7.38667 47.9232 7.38667C47.983 7.38667 48.0428 7.32759 48.1027 7.20943L48.7009 6.2048C48.7607 6.14572 48.7607 6.08664 48.7607 6.02756C48.7607 5.9094 48.6411 5.85022 48.5215 5.79114C44.5728 3.84104 42.5386 7.44575 42.5386 11.6414C42.5386 17.0781 46.5471 17.8463 48.8206 16.1917C48.9402 16.1326 48.9402 16.0144 48.9402 15.9554L48.8805 15.2461ZM39.0685 10.5777L41.8206 5.67298C41.8805 5.61381 41.8206 5.49565 41.7608 5.49565H40.3847C39.9659 5.49565 39.8463 5.61381 39.7266 5.9093C39.6069 6.2048 37.5728 10.4005 37.3334 10.5777V5.67289C37.3334 5.61372 37.2736 5.49556 37.2138 5.49556H35.718C35.6582 5.49556 35.5984 5.55464 35.5984 5.67289V16.5462C35.5984 16.6053 35.6582 16.7234 35.718 16.7234H37.2138C37.3334 16.7234 37.3334 16.6643 37.3334 16.5462V10.9322C37.513 11.0504 40.0257 16.1916 40.0855 16.3689C40.2052 16.6052 40.4445 16.7234 40.7437 16.7234H42.2394C42.3591 16.7234 42.3591 16.6643 42.2993 16.5462L39.0685 10.5777ZM25.9659 15.3053H25.6667C25.3078 15.3053 25.2479 15.1872 25.2479 14.8916V5.67289C25.2479 5.55473 25.1881 5.49556 25.1283 5.49556H20.5214C20.4018 5.49556 20.342 5.55464 20.342 5.67289C20.342 8.1548 20.4018 12.2914 18.7265 15.3052H18.248C18.1284 15.3052 18.0685 15.3643 18.0685 15.4825V18.7326C18.0685 18.8508 18.1881 18.9099 18.248 18.9099H19.3249C19.5641 18.9099 19.6838 18.7326 19.6838 18.5554V16.7234H24.5301V18.7326C24.5301 18.7918 24.5899 18.9099 24.7095 18.9099H25.9061C26.0257 18.9099 26.2052 18.7918 26.2052 18.5554V15.4825C26.1454 15.3643 26.0856 15.3052 25.966 15.3052L25.9659 15.3053ZM23.4531 15.3053H20.1025C21.0599 13.7689 21.9573 11.287 21.9573 6.91394H23.453L23.4531 15.3053ZM30.6326 5.25933C28.1796 5.25933 27.0428 8.27305 27.0428 11.5823C27.0428 17.019 30.8719 17.8463 33.5043 16.2508C33.624 16.1917 33.624 16.1326 33.624 16.0735L33.4445 15.3053C33.4445 15.2461 33.3847 15.1872 33.2651 15.1872C32.3078 15.1872 28.9574 16.8417 28.9574 11.4642C30.154 11.5824 30.154 11.5824 33.7437 11.5824C33.6839 8.86404 33.3848 5.25933 30.6326 5.25933ZM29.0173 10.223C29.0173 5.90911 31.8891 5.08181 31.8891 10.1048C30.6327 10.1048 30.0942 10.1048 29.0173 10.223Z" fill="white"/>
</g>
<defs>
<clipPath id="clip0_656_838">
<rect width="49" height="19" fill="white"/>
</clipPath>
</defs>
</svg>
